<?xml version="1.0" encoding="UTF-8"?>
<svg width="64px" height="64px" viewBox="0 0 64 64" version="1.1" xmlns="http://www.w3.org/2000/svg" xmlns:xlink="http://www.w3.org/1999/xlink">
    <!-- Generator: Sketch 59 (86127) - https://sketch.com -->
    <title>Logo</title>
    <desc>Created with Sketch.</desc>
    <defs>
        <polygon id="path-1" points="0 0.554426038 63.439012 0.554426038 63.439012 63.3402062 0 63.3402062"></polygon>
    </defs>
    <g id="Blog-Homepage" stroke="none" stroke-width="1" fill="none" fill-rule="evenodd">
        <g id="Header-Desktop" transform="translate(-28.000000, -28.000000)">
            <g id="Logo" transform="translate(28.000000, 28.000000)">
                <g id="logo">
                    <g id="Group-3" transform="translate(0.000000, 0.105369)">
                        <mask id="mask-2" fill="white">
                            <use xlink:href="#path-1"></use>
                        </mask>
                        <g id="Clip-2"></g>
                        <path d="M63.4370667,32.2897814 C63.2457333,49.6271835 48.8904,63.5277196 31.3724,63.3383588 C13.8544,63.1483381 -0.188933333,48.9403381 0.00173333333,31.6029361 C0.193066667,14.2661938 14.5484,0.36697732 32.0664,0.556338144 C49.5844,0.745698969 63.6290667,14.9530392 63.4370667,32.2897814" id="Fill-1" fill="#35322C" mask="url(#mask-2)"></path>
                    </g>
                    <path d="M20.6056667,21.2470103 L20.4763333,32.8475052 L29.5683333,28.7086186 L20.6056667,21.2470103 Z M18.341,15.5028454 L42.975,36.1748454 L40.1043333,37.4812371 L31.897,30.7256082 L20.4403333,35.9412784 L20.3243333,46.4861031 L17.3596667,47.8353814 L17.6903333,15.7997526 L18.341,15.5028454 Z" id="Fill-4" fill="#F9FBFB"></path>
                    <path d="M42.8348667,42.8571711 L42.9628667,31.2573361 L33.8735333,35.3955629 L42.8348667,42.8571711 Z M45.0982,48.6019959 L20.4648667,27.9293361 L23.3342,26.6236041 L31.5415333,33.3785732 L42.9968667,28.1629031 L43.1148667,17.6180784 L46.0788667,16.2688 L45.7488667,48.3050887 L45.0982,48.6019959 Z" id="Fill-6" fill="#F9FBFB"></path>
                </g>
            </g>
        </g>
    </g>
</svg>